<?xml version="1.0" standalone="no"?>
<!DOCTYPE svg PUBLIC "-//W3C//DTD SVG 20010904//EN"
 "http://www.w3.org/TR/2001/REC-SVG-20010904/DTD/svg10.dtd">
<svg version="1.0" xmlns="http://www.w3.org/2000/svg"
 width="140.000000pt" height="140.000000pt" viewBox="0 0 640.000000 640.000000"
 preserveAspectRatio="xMidYMid meet">

<g transform="translate(0.000000,640.000000) scale(0.100000,-0.100000)"
fill="#0088cc" stroke="none">
<path d="M3440 6020 l-45 -7 41 -1 c23 -1 57 -5 75 -8 24 -4 30 -3 20 4 -11 8
-9 11 10 15 39 7 -52 5 -101 -3z"/>
<path d="M3575 6012 c-30 -5 -30 -5 -5 -11 20 -6 26 -14 28 -44 l3 -37 -40 0
c-35 0 -41 3 -41 20 0 11 -8 23 -17 27 -10 3 -25 11 -33 18 -19 15 -107 28
-114 16 -3 -5 -22 -12 -41 -15 -19 -4 -35 -11 -35 -17 0 -6 -4 -7 -10 -4 -5 3
-10 1 -10 -4 0 -6 -3 -10 -7 -8 -5 1 -9 -2 -11 -8 -2 -5 1 -11 7 -13 6 -2 11
1 11 7 0 6 8 11 18 11 9 0 26 7 36 15 25 19 46 19 46 1 0 -9 -7 -12 -19 -9
-10 3 -22 0 -25 -6 -5 -7 3 -11 21 -11 22 0 25 -2 13 -10 -18 -12 -98 -11
-122 2 -13 6 -29 -1 -63 -27 -60 -45 -75 -61 -68 -69 10 -9 25 -7 19 3 -3 5 0
11 8 14 23 9 27 -21 9 -56 -10 -20 -15 -51 -14 -84 2 -53 2 -53 -27 -53 -17 0
-33 -6 -35 -12 -3 -7 -6 -3 -6 9 -1 12 -9 24 -21 28 -24 8 -25 18 -5 39 9 8
11 17 5 21 -11 7 -44 -57 -71 -140 -13 -39 -21 -92 -22 -150 -2 -99 6 -128 28
-98 10 14 11 21 2 32 -21 25 -17 80 10 129 38 70 43 72 39 11 -2 -29 -5 -54
-6 -54 -1 0 -4 -26 -6 -57 -3 -50 0 -62 23 -88 20 -24 23 -33 14 -44 -8 -10
-9 -16 -1 -21 5 -3 10 1 10 9 0 9 5 16 10 16 6 0 10 -6 9 -12 -3 -27 2 -37 16
-32 22 9 19 22 -15 63 -17 20 -35 41 -40 47 -5 7 -3 31 5 60 11 37 28 61 67
98 29 26 46 46 37 43 -10 -3 -25 4 -38 19 l-21 24 38 0 c28 0 33 -3 22 -10
-13 -9 -13 -11 0 -20 20 -13 27 -12 37 3 4 7 21 23 37 35 57 44 117 104 111
110 -4 4 -15 -4 -26 -17 l-19 -24 4 24 c3 13 5 28 5 32 1 5 11 5 23 1 12 -3
53 -7 91 -8 65 -1 71 -3 97 -34 33 -40 45 -104 25 -143 -14 -25 -13 -26 10
-26 22 0 23 3 20 51 -1 28 0 36 2 17 2 -19 11 -44 19 -55 14 -20 15 -18 7 19
-11 56 -10 125 2 125 6 1 12 -7 15 -17 3 -12 16 -18 38 -20 18 0 36 -4 39 -7
10 -10 -19 -36 -39 -36 -17 0 -19 -5 -16 -27 3 -16 8 -36 12 -45 6 -13 3 -15
-13 -11 -12 3 -21 1 -21 -5 0 -6 -11 -22 -25 -36 -14 -14 -25 -22 -25 -19 0 4
-6 -1 -13 -12 -13 -17 -14 -17 -20 4 -3 14 -10 19 -21 15 -9 -3 -16 -1 -16 5
0 6 7 11 15 11 8 0 15 7 15 15 0 21 -13 19 -38 -8 -29 -31 -28 -37 7 -37 17 0
31 -6 35 -16 10 -25 8 -26 -20 -7 -27 17 -27 17 -15 -6 12 -21 11 -22 -8 -16
-22 7 -30 -9 -8 -19 7 -4 8 -8 2 -11 -33 -17 -39 -26 -38 -59 1 -31 -2 -36
-22 -36 -13 0 -27 5 -30 10 -4 6 -1 9 7 8 23 -5 22 48 -2 65 -13 9 -17 17 -11
22 6 3 11 2 11 -3 0 -5 9 -12 19 -15 12 -3 18 0 15 7 -2 6 5 22 16 34 12 12
18 27 15 32 -10 17 -25 11 -18 -7 5 -12 2 -15 -10 -10 -21 8 -130 -82 -122
-101 3 -9 0 -12 -8 -9 -7 2 -26 -6 -42 -19 -17 -13 -24 -24 -17 -24 6 0 11 -5
10 -12 -2 -7 7 -17 20 -23 30 -13 28 -35 -3 -35 -14 0 -25 5 -25 10 0 6 -11
10 -25 10 -14 0 -25 -4 -25 -10 0 -5 -15 -10 -32 -10 -25 0 -29 3 -18 10 13 9
13 10 -1 10 -8 0 -21 -6 -27 -12 -10 -10 -15 -10 -21 1 -12 18 -32 5 -24 -16
4 -10 2 -14 -5 -9 -6 3 -15 -2 -21 -11 -9 -16 -12 -16 -21 -3 -5 8 -10 25 -10
37 0 12 -4 25 -10 28 -17 10 -11 -26 12 -74 24 -51 103 -143 114 -132 4 3 4
-1 2 -9 -7 -20 4 -39 72 -135 149 -208 245 -415 290 -625 31 -144 25 -353 -14
-483 -29 -96 -83 -213 -123 -265 -77 -101 -272 -218 -411 -247 -300 -62 -650
64 -1112 399 -113 82 -158 109 -170 101 -7 -4 -3 -17 10 -35 24 -34 25 -46 5
-54 -9 -3 -15 0 -15 8 0 14 -41 46 -59 46 -5 0 -22 5 -38 11 -22 8 -24 12 -13
19 8 6 25 10 37 10 17 0 21 5 17 18 -2 9 1 7 7 -5 13 -26 18 -27 39 -13 13 9
12 13 -9 30 -13 11 -29 20 -37 20 -8 0 -14 5 -14 10 0 6 -7 10 -15 10 -8 0
-15 -4 -15 -9 0 -5 -7 -11 -15 -15 -13 -5 -14 -2 -4 15 6 11 9 22 7 24 -2 1
-32 13 -68 25 -54 20 -85 23 -185 23 -103 0 -130 -3 -190 -25 -52 -18 -70 -29
-70 -43 0 -10 -6 -20 -14 -23 -10 -3 -12 0 -8 11 5 13 2 13 -16 3 -12 -6 -42
-26 -67 -44 -34 -25 -45 -40 -46 -63 -1 -19 3 -29 12 -29 8 0 14 -5 14 -10 0
-7 -6 -7 -19 0 -11 5 -28 7 -38 3 -12 -4 -10 0 7 14 14 12 22 25 18 29 -8 7
-47 -34 -48 -50 0 -4 -10 -19 -22 -31 -13 -13 -23 -36 -24 -52 -1 -16 -4 -39
-8 -50 -4 -14 -2 -23 8 -26 11 -4 13 -1 9 11 -6 14 -5 15 9 2 8 -8 13 -22 10
-30 -4 -12 -1 -11 15 3 11 9 29 17 41 17 19 0 22 -6 22 -40 0 -38 2 -40 30
-40 34 0 38 7 12 27 -9 7 -12 12 -7 11 15 -3 59 13 68 26 5 6 7 0 4 -16 -2
-15 0 -33 4 -40 7 -10 9 -10 9 0 0 6 5 12 10 12 19 0 10 -21 -12 -31 -22 -9
-22 -9 2 -4 14 4 30 7 36 7 6 1 11 7 11 14 0 7 -4 11 -8 8 -15 -9 -39 41 -39
83 0 53 22 67 92 61 27 -3 51 -1 54 3 3 5 1 24 -5 43 -8 30 -7 36 9 41 11 3
21 20 24 40 4 19 11 35 16 35 13 0 13 -17 0 -25 -5 -3 -9 -18 -9 -33 1 -15 3
-20 6 -11 5 21 34 29 98 27 l50 -1 -55 -6 c-48 -5 -57 -10 -78 -40 -12 -19
-21 -42 -20 -50 2 -9 -6 -21 -17 -27 -15 -7 -19 -18 -17 -40 2 -16 7 -30 12
-32 5 -2 6 -10 3 -18 -7 -19 21 -18 41 2 9 8 13 21 9 27 -4 7 -8 5 -12 -6 -4
-11 -11 -13 -20 -8 -9 6 -10 11 -2 15 16 11 13 26 -4 20 -10 -4 -15 0 -15 15
0 28 40 29 47 1 3 -11 10 -20 15 -20 6 0 8 -9 5 -20 -3 -13 0 -20 9 -20 19 0
18 26 -4 50 -9 11 -19 35 -22 53 -5 26 0 37 22 60 34 33 66 34 104 5 15 -13
25 -17 21 -11 -4 6 -1 13 5 16 10 3 11 9 1 26 -17 28 -16 36 2 21 8 -7 15 -19
15 -26 0 -8 3 -14 8 -13 4 1 17 -2 30 -6 l22 -7 -21 -19 c-12 -11 -31 -19 -42
-19 -16 0 -19 -5 -14 -28 5 -22 0 -32 -19 -47 -24 -18 -33 -55 -13 -55 5 0 8
3 5 8 -7 12 22 45 33 37 7 -4 11 5 11 22 1 27 1 27 15 9 13 -17 15 -18 15 -3
0 9 5 17 11 17 6 0 9 12 7 28 -2 18 2 26 10 24 7 -1 15 5 18 13 7 18 25 20 22
3 -5 -20 30 -21 36 -1 3 11 4 9 3 -7 -2 -21 -8 -25 -40 -28 -29 -3 -37 -7 -33
-18 3 -8 -1 -17 -9 -20 -8 -4 -15 -14 -15 -23 1 -15 1 -15 10 1 6 9 24 24 41
32 27 13 34 14 51 2 11 -8 27 -12 36 -9 9 4 13 2 9 -4 -4 -6 -3 -23 3 -37 19
-52 -28 -116 -82 -110 -33 4 -36 -9 -14 -61 15 -36 34 -38 64 -8 23 22 89 16
106 -9 19 -27 21 -79 4 -96 -16 -16 -2 -28 16 -13 15 13 27 -3 19 -27 -4 -10
-10 -10 -29 3 -36 23 -135 3 -109 -23 3 -3 9 -2 13 4 18 28 92 21 92 -8 0 -9
-3 -9 -12 0 -7 7 -21 12 -32 12 -16 0 -18 -2 -7 -9 11 -7 11 -10 0 -17 -7 -4
-14 -3 -17 4 -5 17 -23 15 -20 -2 2 -8 0 -15 -4 -15 -5 -1 -8 2 -7 5 2 14 -26
22 -43 13 -14 -8 -16 -6 -11 8 6 16 5 16 -10 4 -23 -18 -21 -2 3 29 22 28 25
40 10 40 -5 0 -18 -17 -29 -39 -23 -44 -14 -61 30 -61 14 0 39 -12 54 -26 25
-23 27 -24 22 -5 -3 12 -2 23 3 26 12 8 20 -37 9 -51 -7 -8 -7 -14 1 -19 5 -3
10 -17 10 -30 0 -15 7 -26 20 -30 25 -8 25 -21 0 -37 -11 -7 -20 -21 -20 -30
0 -25 -37 -23 -51 3 -9 17 -8 25 5 37 14 14 16 14 22 -2 5 -14 9 -15 15 -4 14
21 11 28 -12 28 -19 0 -19 1 -5 16 18 17 22 49 5 39 -6 -4 -8 -9 -5 -12 5 -6
-26 -38 -45 -46 -9 -3 -7 -6 6 -6 16 -1 17 -3 6 -10 -9 -6 -22 -6 -33 0 -10 5
-34 9 -53 7 -29 -2 -35 -6 -35 -24 0 -29 -24 -48 -54 -40 -15 4 -28 0 -36 -9
-19 -23 -73 -19 -97 8 -26 28 -35 73 -17 88 16 13 18 29 4 29 -5 0 -10 -5 -10
-11 0 -6 -7 -17 -15 -26 -10 -9 -14 -26 -11 -42 8 -52 18 -81 28 -81 5 0 6 5
2 11 -4 7 -1 10 7 7 8 -3 14 -11 14 -19 0 -9 13 -15 34 -17 25 -3 31 -6 20
-13 -11 -7 -9 -9 9 -9 26 0 29 18 5 36 -17 12 -16 13 8 14 14 0 34 -7 45 -15
12 -9 14 -14 6 -15 -7 0 -10 -4 -7 -10 9 -14 48 -13 63 2 10 10 17 10 32 0 12
-7 21 -8 25 -2 3 6 11 10 18 10 6 0 -3 -10 -20 -22 -20 -14 -33 -32 -33 -45 0
-27 12 -30 30 -8 7 9 15 13 18 11 9 -9 42 14 42 29 0 8 7 15 15 15 9 0 15 -10
15 -26 0 -14 -4 -23 -9 -19 -5 3 -12 -3 -16 -14 -6 -19 -48 -36 -65 -26 -5 3
-11 1 -14 -3 -3 -5 -26 -6 -51 -2 -25 4 -45 3 -45 -1 0 -4 17 -10 38 -12 l37
-4 -40 -2 c-36 -3 -37 -4 -15 -11 22 -7 21 -8 -12 -9 -37 -1 -50 11 -25 23 6
4 -4 5 -23 3 -19 -2 -48 0 -65 4 -24 5 -16 7 35 9 46 3 54 5 28 7 -33 4 -38 8
-38 29 0 19 -5 24 -25 24 -13 0 -28 6 -32 14 -4 8 -17 16 -28 19 -11 4 -2 4
19 1 34 -5 37 -4 24 9 -20 20 -119 27 -125 9 -3 -8 8 -18 25 -24 26 -10 28
-14 15 -23 -20 -15 -73 -7 -80 12 -4 9 5 24 21 38 14 12 26 27 26 33 0 6 6 13
13 15 7 3 5 6 -6 6 -15 1 -16 4 -5 24 7 12 11 28 9 36 -1 7 2 10 7 7 5 -3 15
0 21 8 9 10 7 17 -6 27 -15 12 -16 12 -10 -5 5 -13 3 -17 -7 -13 -8 3 -20 -1
-26 -9 -16 -18 -35 -18 -70 3 -51 30 -60 82 -22 126 16 18 3 24 -15 6 -7 -7
-13 -7 -17 0 -4 5 6 17 22 25 34 18 44 37 30 57 -8 11 -9 11 -5 -2 8 -25 -83
-14 -102 12 -18 25 -31 24 -31 -1 0 -14 7 -20 21 -20 15 0 19 -4 15 -16 -3 -9
-6 -18 -6 -20 0 -12 -31 -2 -42 14 -20 28 -48 35 -69 16 -10 -9 -16 -21 -12
-27 4 -6 0 -8 -11 -4 -10 4 -20 7 -22 7 -2 0 -4 10 -4 22 0 21 0 21 15 2 11
-14 15 -15 14 -4 -1 8 -1 26 0 39 1 23 2 23 19 8 10 -10 22 -14 25 -10 14 13
6 55 -13 71 -19 16 -19 19 -5 46 19 35 19 56 1 56 -22 0 -33 -22 -31 -58 4
-41 -7 -34 -11 7 -2 17 1 33 6 36 13 8 13 52 0 60 -6 4 -10 -5 -10 -19 0 -40
-36 -35 -44 7 -14 64 -26 1 -28 -140 -1 -142 4 -185 28 -231 8 -15 14 -36 14
-47 1 -14 6 -8 18 18 16 36 41 55 27 20 -4 -10 -9 -27 -12 -38 -4 -17 -3 -17
6 -5 9 11 10 5 5 -27 -5 -36 -4 -43 10 -43 9 0 16 -6 16 -14 0 -8 5 -18 11
-22 7 -4 10 -1 7 7 -3 8 -1 22 4 32 7 14 4 23 -14 37 l-23 19 25 2 c29 3 62 0
67 -5 5 -4 -29 -69 -40 -77 -4 -3 0 -12 9 -20 16 -12 17 -12 11 4 -5 15 0 17
38 17 33 0 45 4 45 14 0 24 18 28 51 11 17 -9 29 -13 26 -8 -3 4 8 9 24 10 15
1 31 -2 34 -7 4 -6 -6 -11 -22 -11 -23 -2 -24 -2 -6 -6 47 -9 21 -23 -42 -23
l-65 0 0 -35 c0 -26 4 -35 17 -35 9 0 13 -3 10 -7 -4 -3 1 -12 11 -19 9 -7 13
-16 8 -21 -4 -4 -15 2 -23 15 -18 26 -33 29 -33 6 0 -8 15 -21 34 -29 19 -8
37 -19 41 -25 8 -13 25 -13 25 1 0 5 -4 8 -9 5 -5 -3 -8 6 -8 20 0 14 2 22 6
17 20 -28 64 -44 111 -39 28 2 50 0 50 -5 0 -9 -58 -15 -113 -11 -47 4 -20
-16 36 -26 160 -29 158 -29 153 -16 -7 19 15 29 25 12 10 -18 113 -16 354 7
436 43 885 25 1263 -51 734 -148 1336 -515 1743 -1064 68 -90 107 -146 158
-222 37 -56 39 -57 45 -32 4 15 2 32 -5 40 -9 12 -4 14 32 14 51 0 65 7 71 35
4 18 6 17 16 -8 16 -38 8 -47 -36 -47 -20 0 -44 -5 -52 -11 -24 -17 72 -3 117
17 21 10 44 16 51 15 6 -1 12 2 12 8 0 5 12 12 28 16 28 6 95 55 76 55 -6 0
-23 -9 -36 -20 -14 -10 -28 -17 -30 -14 -3 2 -18 -2 -34 -10 -25 -14 -30 -14
-46 1 -10 9 -18 22 -18 30 0 7 -11 13 -24 13 -28 0 -36 15 -29 53 5 25 10 27
54 28 27 1 54 3 59 4 6 1 19 3 30 4 16 1 20 8 20 36 0 28 4 35 19 35 15 0 20
-9 23 -39 3 -35 0 -41 -25 -56 -19 -12 -41 -15 -63 -12 -32 5 -34 4 -34 -22 0
-26 4 -29 45 -35 47 -7 70 -2 59 15 -3 5 -10 7 -15 4 -5 -4 -9 -1 -9 4 0 14
26 14 52 0 17 -9 24 -6 48 23 16 18 32 46 35 61 4 17 16 32 31 37 24 9 34 40
13 40 -6 0 -9 -7 -5 -15 3 -8 1 -15 -4 -15 -6 0 -10 9 -10 21 0 12 -4 17 -11
14 -6 -4 -8 -13 -5 -21 3 -9 0 -14 -7 -13 -21 4 -47 -13 -47 -30 1 -14 3 -13
15 3 25 33 28 9 5 -38 -14 -31 -28 -46 -41 -46 -20 0 -23 8 -13 34 5 13 9 14
20 5 9 -7 14 -8 14 -1 0 5 -7 13 -16 16 -18 7 -16 62 2 59 7 -1 10 6 7 17 -3
11 -2 31 1 45 5 20 13 25 36 25 28 0 36 -9 30 -35 -1 -5 2 -7 6 -3 4 4 14 2
22 -5 10 -8 9 -2 -4 18 -19 29 -19 29 0 22 19 -7 19 -7 4 10 -16 18 -21 76 -5
66 4 -2 7 0 7 6 0 5 -6 11 -12 14 -9 3 -8 10 6 26 11 11 14 21 8 21 -14 0 -16
32 -3 45 6 6 3 16 -7 25 -14 13 -15 12 -9 -3 9 -23 -2 -47 -20 -47 -13 0 -14
12 -8 78 4 42 12 80 18 84 18 11 21 0 6 -18 -13 -16 -12 -16 9 -3 26 16 28 25
7 33 -21 8 -19 29 4 50 15 14 24 15 39 7 11 -6 23 -16 26 -23 3 -7 5 1 3 19
-4 36 6 43 46 36 16 -3 27 -1 27 6 0 21 30 11 40 -13 5 -14 19 -25 34 -28 31
-6 42 5 21 22 -8 7 -15 18 -15 25 0 8 -4 15 -9 17 -5 2 -11 12 -13 23 -2 13 3
20 17 23 17 3 18 1 5 -8 -12 -9 -10 -11 13 -7 15 2 25 2 23 -1 -3 -2 -1 -13 4
-23 8 -13 21 -17 54 -16 39 2 41 3 25 15 -11 7 -25 10 -32 6 -6 -4 -9 -4 -5 1
8 9 -47 37 -96 49 -31 8 -195 96 -326 174 -129 78 -261 183 -381 303 -404 402
-624 936 -690 1669 -14 160 -15 578 -1 845 11 206 7 308 -12 302 -6 -2 -12
-17 -13 -33 -1 -16 -3 -48 -4 -72 -2 -33 -5 -40 -12 -27 -8 14 -12 114 -6 142
1 4 -5 25 -14 45 -10 21 -17 42 -17 47 0 5 -7 11 -15 15 -8 3 -15 13 -15 23 0
15 3 14 16 -5 8 -12 20 -19 26 -16 6 4 8 2 4 -4 -8 -13 33 -94 44 -87 5 3 1
22 -9 43 -63 133 -74 151 -90 150 -38 -3 -50 2 -44 18 6 15 7 15 20 -1 7 -10
16 -16 19 -12 11 11 -37 69 -53 63 -9 -4 -13 -1 -11 6 6 17 -113 96 -175 115
-28 10 -54 20 -57 24 -7 10 -81 17 -115 11z m58 -9 c-7 -2 -19 -2 -25 0 -7 3
-2 5 12 5 14 0 19 -2 13 -5z m-246 -18 c0 -18 -19 -15 -25 3 -2 7 3 12 11 12
7 0 14 -7 14 -15z m358 -32 c14 -15 25 -22 25 -15 0 6 7 12 15 12 23 0 18 -17
-7 -23 -13 -3 -39 -4 -58 -2 -19 1 -39 -1 -45 -4 -5 -4 -16 -6 -22 -5 -7 1
-20 2 -28 3 -8 0 -15 6 -15 13 0 6 3 9 6 6 3 -4 17 0 31 7 18 10 32 11 44 4
23 -12 29 -11 29 1 0 6 -7 10 -15 10 -8 0 -15 5 -15 10 0 19 29 10 55 -17z
m131 -80 c-9 -9 -36 18 -36 35 0 12 5 11 21 -7 12 -12 18 -25 15 -28z m-679
-28 c2 -40 -1 -65 -8 -65 -6 0 -8 4 -5 9 4 5 1 11 -4 13 -15 5 -19 41 -6 50 7
5 4 8 -6 8 -24 0 -23 8 5 31 12 10 22 18 22 19 0 0 1 -29 2 -65z m711 13 c-3
-7 2 -19 9 -27 16 -15 14 -42 -4 -48 -14 -5 -53 32 -53 50 0 10 22 26 48 36 2
0 2 -5 0 -11z m42 -18 c0 -5 -4 -10 -10 -10 -5 0 -10 5 -10 10 0 6 5 10 10 10
6 0 10 -4 10 -10z m10 -76 c0 -2 -9 -4 -21 -4 -11 0 -18 4 -14 10 5 8 35 3 35
-6z m-532 -9 c10 -9 -81 -13 -100 -5 -20 9 -19 9 10 4 20 -3 32 -2 32 5 0 9
45 6 58 -4z m252 0 c10 -12 10 -15 -4 -15 -9 0 -16 7 -16 15 0 8 2 15 4 15 2
0 9 -7 16 -15z m-450 -5 c0 -5 -7 -7 -15 -4 -8 4 -15 8 -15 10 0 2 7 4 15 4 8
0 15 -4 15 -10z m240 0 c0 -5 -4 -10 -10 -10 -5 0 -10 5 -10 10 0 6 5 10 10
10 6 0 10 -4 10 -10z m50 -17 c0 -25 -1 -26 -16 -11 -9 9 -13 21 -10 27 13 20
26 11 26 -16z m519 -28 c0 -5 -6 -1 -14 9 -8 11 -15 24 -15 30 0 5 7 1 15 -10
8 -10 14 -23 14 -29z m-459 5 c0 -10 -27 -7 -37 5 -4 4 -2 5 5 1 6 -4 12 -2
12 4 0 6 5 8 10 5 6 -3 10 -10 10 -15z m100 10 c0 -5 -2 -10 -4 -10 -3 0 -8 5
-11 10 -3 6 -1 10 4 10 6 0 11 -4 11 -10z m-450 -41 c0 -7 9 -9 21 -6 12 3 18
3 13 -1 -5 -4 -22 -18 -37 -32 -19 -16 -26 -19 -22 -8 4 9 2 19 -4 23 -6 3
-11 11 -11 16 0 6 5 7 10 4 6 -3 10 -1 10 4 0 6 5 11 10 11 6 0 10 -5 10 -11z
m-200 -38 c0 -30 -4 -40 -20 -44 -11 -3 -23 -1 -26 5 -9 14 5 60 16 53 5 -3 6
-13 3 -22 -5 -11 -3 -14 6 -9 8 5 10 18 7 32 -4 14 -2 24 4 24 5 0 10 -17 10
-39z m517 17 c-3 -8 -6 -5 -6 6 -1 11 2 17 5 13 3 -3 4 -12 1 -19z m460 -10
c-3 -8 -6 -5 -6 6 -1 11 2 17 5 13 3 -3 4 -12 1 -19z m14 -46 c-5 -2 -7 -21
-4 -42 4 -26 2 -40 -6 -40 -6 0 -11 -9 -11 -20 0 -24 -1 -24 -43 -6 -25 10
-33 20 -35 42 -1 16 -12 36 -24 45 -21 16 -21 17 -2 21 22 4 138 4 125 0z
m-261 -35 c0 -22 -11 -27 -26 -12 -19 19 -18 25 6 25 11 0 20 -6 20 -13z
m-684 -40 c-3 -12 -5 -25 -5 -28 -1 -7 -31 -21 -31 -14 0 2 8 11 17 21 16 16
16 16 -4 10 -13 -4 -24 -2 -29 5 -4 8 -3 9 4 5 8 -5 12 2 12 19 0 23 2 24 20
15 13 -7 18 -18 16 -33z m779 23 c-3 -5 -1 -10 5 -10 12 0 40 -24 40 -35 0 -3
-10 -3 -22 0 -18 5 -20 4 -8 -4 13 -9 12 -11 -5 -11 -15 0 -21 7 -23 26 -2 25
4 44 14 44 3 0 2 -4 -1 -10z m242 -22 c-3 -8 -6 -5 -6 6 -1 11 2 17 5 13 3 -3
4 -12 1 -19z m-421 4 c-2 -4 -1 -14 5 -22 7 -12 9 -10 9 8 0 14 6 22 18 22 14
0 15 -2 2 -10 -12 -8 -12 -10 -1 -10 8 0 2 -9 -13 -21 -14 -11 -30 -17 -36
-14 -14 9 -12 42 3 48 18 8 19 8 13 -1z m88 -7 c-5 -12 3 -15 32 -16 26 -1 31
-3 15 -6 -12 -3 -34 -2 -48 2 -20 5 -23 8 -13 20 16 19 21 19 14 0z m316 -204
c-21 -14 -29 -48 -8 -35 8 5 9 2 5 -10 -4 -10 -7 -27 -7 -39 0 -18 -2 -19 -10
-7 -7 12 -10 11 -16 -5 -5 -11 -3 -20 4 -23 7 -2 12 -9 12 -15 0 -8 -4 -7 -12
1 -17 17 -28 15 -28 -5 -1 -16 -2 -16 -12 1 -8 15 -8 21 1 24 16 5 32 47 37
91 2 19 9 38 16 42 10 6 7 12 -9 24 -13 9 -23 22 -23 29 0 7 -9 21 -20 31 -11
10 -20 22 -20 26 0 15 41 -25 57 -55 l15 -30 14 33 c8 18 15 52 16 75 1 22 4
1 6 -49 3 -82 1 -91 -18 -104z m-112 150 c8 -5 -8 -6 -40 -4 -73 6 -83 11 -23
12 28 0 56 -3 63 -8z m9 -37 c45 -35 65 -76 58 -122 -6 -40 -44 -104 -57 -96
-4 3 -8 1 -8 -4 0 -10 -35 -15 -163 -26 -32 -2 -62 -7 -65 -11 -4 -4 17 -5 46
-4 28 2 52 1 52 -3 0 -5 -21 -9 -47 -10 l-48 -1 44 -4 c24 -3 49 1 54 6 13 13
77 15 77 2 0 -15 -41 -21 -142 -21 -80 0 -98 -3 -98 -15 0 -16 -24 -19 -55 -5
-18 8 -17 9 7 9 15 1 30 6 33 11 3 6 19 10 35 10 19 0 28 4 25 13 -4 8 -35 12
-109 12 -95 0 -102 -1 -98 -18 4 -15 12 -18 41 -14 20 3 28 3 19 1 -10 -3 -15
-11 -11 -20 4 -10 0 -13 -13 -8 -51 16 -59 25 -58 58 2 30 -1 33 -28 33 l-30
0 23 -18 c22 -17 23 -18 5 -25 -13 -5 -24 0 -37 17 -16 20 -20 22 -29 9 -6
-10 -10 -11 -10 -2 0 6 -5 12 -11 12 -6 0 -8 -12 -5 -32 l6 -33 -14 35 c-13
32 -12 36 8 52 15 12 23 14 29 5 6 -9 10 -9 13 -1 6 13 44 7 44 -7 0 -5 5 -9
10 -9 12 0 13 27 1 32 -4 2 -10 28 -13 60 -3 38 -1 55 6 52 6 -2 16 5 21 17 6
12 25 30 42 39 18 10 31 19 29 21 -3 2 41 5 97 7 56 1 125 6 152 11 95 16 135
13 172 -15z m87 -10 c9 -24 7 -28 -9 -14 -17 14 -20 30 -6 30 5 0 12 -7 15
-16z m-654 -24 c0 -5 -4 -10 -10 -10 -5 0 -10 5 -10 10 0 6 5 10 10 10 6 0 10
-4 10 -10z m-50 -60 c0 -15 -7 -20 -25 -20 -14 0 -25 5 -25 10 0 6 9 10 20 10
11 0 20 5 20 10 0 6 2 10 5 10 3 0 5 -9 5 -20z m-16 -39 c6 -10 -26 -21 -62
-21 -13 0 -20 4 -17 10 4 6 11 8 16 5 5 -4 17 -1 26 4 22 13 30 13 37 2z m616
-156 c0 -14 -4 -25 -10 -25 -5 0 -10 11 -10 25 0 14 5 25 10 25 6 0 10 -11 10
-25z m-854 -10 c21 0 30 -4 27 -13 -3 -7 7 -22 21 -33 15 -12 25 -28 22 -35
-3 -8 -2 -22 1 -31 6 -15 7 -15 14 3 7 17 8 17 8 -3 1 -25 0 -26 -23 -17 -9 3
-16 12 -16 20 0 8 -4 14 -10 14 -13 0 -13 -16 1 -43 9 -17 9 -19 0 -11 -7 6
-20 26 -30 45 -10 19 -28 39 -40 44 -13 6 -20 16 -18 27 3 11 0 15 -9 11 -9
-3 -14 2 -14 14 0 27 12 37 25 21 5 -8 24 -13 41 -13z m544 15 c-8 -5 -24 -10
-35 -10 -17 0 -17 2 -5 10 8 5 24 10 35 10 17 0 17 -2 5 -10z m-180 -20 c0 -5
-7 -10 -15 -10 -8 0 -15 5 -15 10 0 6 7 10 15 10 8 0 15 -4 15 -10z m308 -7
c-15 -2 -42 -2 -60 0 -18 2 -6 4 27 4 33 0 48 -2 33 -4z m142 -37 c0 -47 -17
-60 -60 -49 -21 6 -28 23 -8 23 6 0 8 3 5 6 -3 4 -1 16 4 27 8 15 8 22 -2 28
-9 6 -1 9 24 9 l37 0 0 -44z m110 40 c0 -3 -4 -8 -10 -11 -5 -3 -10 -1 -10 4
0 6 5 11 10 11 6 0 10 -2 10 -4z m-45 -16 c-3 -5 -13 -10 -21 -10 -8 0 -14 -4
-14 -10 0 -5 -4 -10 -10 -10 -5 0 -10 6 -10 14 0 13 11 17 53 25 5 0 5 -3 2
-9z m-130 -99 c3 -5 1 -12 -5 -16 -5 -3 -10 1 -10 9 0 18 6 21 15 7z m-655
-52 c0 -6 -4 -7 -10 -4 -5 3 -10 11 -10 16 0 6 5 7 10 4 6 -3 10 -11 10 -16z
m83 -13 c-4 -5 9 -6 32 -2 27 5 35 4 30 -4 -4 -7 -1 -16 6 -21 7 -4 10 -11 7
-15 -4 -4 -19 1 -32 10 -14 9 -31 16 -38 16 -7 0 -22 7 -32 15 -19 15 -19 15
6 13 15 -1 24 -6 21 -12z m142 4 c-3 -5 -17 -10 -31 -10 -13 0 -24 5 -24 10 0
6 14 10 31 10 17 0 28 -4 24 -10z m55 -2 c0 -4 -7 -8 -15 -8 -8 0 -15 4 -15 8
0 5 7 9 15 9 8 0 15 -4 15 -9z m120 2 c0 -5 -2 -10 -4 -10 -3 0 -8 5 -11 10
-3 6 -1 10 4 10 6 0 11 -4 11 -10z m70 0 c0 -5 -11 -10 -24 -10 -14 0 -28 5
-31 10 -4 6 7 10 24 10 17 0 31 -4 31 -10z m99 1 c8 -5 9 -11 3 -15 -5 -3 -15
1 -22 9 -14 16 -3 20 19 6z m48 3 c-3 -3 -12 -4 -19 -1 -8 3 -5 6 6 6 11 1 17
-2 13 -5z m-122 -13 c3 -5 1 -12 -5 -16 -5 -3 -10 1 -10 9 0 18 6 21 15 7z
m-450 -11 c3 -5 2 -10 -4 -10 -5 0 -13 5 -16 10 -3 6 -2 10 4 10 5 0 13 -4 16
-10z m311 -45 c14 -13 11 -15 -29 -15 -32 0 -44 4 -44 15 0 10 10 15 29 15 16
0 36 -7 44 -15z m-137 -21 c10 -9 -35 -3 -49 6 -11 8 -7 9 15 4 17 -4 32 -8
34 -10z m244 -1 c-7 -2 -19 -2 -25 0 -7 3 -2 5 12 5 14 0 19 -2 13 -5z m-95
-10 c-10 -2 -26 -2 -35 0 -10 3 -2 5 17 5 19 0 27 -2 18 -5z m-2228 -963 c11
-7 1 -9 -32 -8 -25 1 -44 6 -42 10 7 11 56 10 74 -2z m-155 -10 c-3 -5 -14
-10 -23 -10 -15 0 -15 2 -2 10 20 13 33 13 25 0z m45 0 c-8 -5 -10 -10 -5 -11
6 0 1 -4 -10 -8 -16 -7 -12 -10 25 -18 25 -5 44 -15 43 -21 -2 -7 4 -9 15 -5
9 3 14 2 9 -2 -4 -5 12 -17 35 -28 l42 -19 -31 -13 c-45 -19 -123 -23 -123 -7
0 5 13 7 29 4 26 -4 29 -1 24 17 -3 11 -13 23 -24 26 -10 3 -21 14 -24 25 -3
10 -18 21 -33 25 -15 4 -21 10 -14 12 6 3 12 11 12 19 0 8 10 14 23 14 18 0
19 -2 7 -10z m175 0 c8 -13 -15 -13 -35 0 -12 8 -11 10 7 10 12 0 25 -4 28
-10z m-285 -20 c0 -5 10 -11 23 -11 l22 -2 -23 -4 c-14 -3 -22 -10 -19 -18 4
-9 -1 -11 -14 -8 -10 3 -19 9 -19 14 0 5 -8 9 -17 9 -14 0 -12 4 7 14 31 17
40 19 40 6z m185 0 c-4 -6 7 -10 27 -9 27 0 30 2 13 9 -34 14 0 11 44 -5 43
-15 86 -10 59 6 -10 7 -10 9 2 9 25 -1 53 -28 47 -45 -4 -8 -19 -20 -34 -26
-23 -8 -30 -7 -40 8 -27 40 -34 43 -71 37 -23 -3 -50 0 -72 10 l-35 15 33 1
c20 0 31 -4 27 -10z m-228 -44 c-3 -8 1 -17 9 -20 10 -4 14 -16 12 -33 -4 -33
-28 -44 -27 -11 0 22 1 22 9 3 8 -18 9 -17 9 8 1 36 -18 35 -25 -3 -4 -16 -9
-30 -13 -31 -3 -1 -22 -2 -41 -3 -19 -2 -50 -6 -67 -10 -35 -8 -45 8 -21 32 9
9 9 12 -3 13 -21 1 32 21 65 24 16 2 31 8 35 13 4 6 18 15 31 21 33 13 33 13
27 -3z m-90 -12 c-3 -3 -12 -4 -19 -1 -8 3 -5 6 6 6 11 1 17 -2 13 -5z m120
-90 c-3 -3 -12 -4 -19 -1 -8 3 -5 6 6 6 11 1 17 -2 13 -5z m253 -14 c0 -5 -4
-10 -10 -10 -5 0 -10 5 -10 10 0 6 5 10 10 10 6 0 10 -4 10 -10z m-320 -43 c0
-13 -11 -33 -24 -44 -13 -12 -27 -35 -31 -53 -5 -21 -10 -29 -17 -22 -6 6 -6
17 1 31 8 14 8 21 1 21 -12 0 -13 40 0 60 5 9 5 17 -1 21 -5 3 8 6 31 7 36 2
40 -1 40 -21z m-174 -17 c1 -6 2 -18 3 -27 1 -16 3 -16 16 1 14 18 15 16 15
-32 0 -29 -3 -52 -7 -52 -5 0 -19 9 -33 20 -28 22 -59 26 -61 8 -1 -7 -5 1 -8
17 -8 35 -3 54 10 34 7 -11 9 -10 9 4 0 9 5 17 10 17 6 0 10 -7 10 -15 0 -18
17 -20 23 -2 2 6 -3 17 -11 23 -9 6 -12 16 -7 23 8 13 29 0 31 -19z m244 -24
c-8 -8 -13 -7 -20 4 -15 23 -12 38 8 42 20 4 29 -29 12 -46z m490 -7 c-4 -22
-6 -51 -4 -62 4 -19 3 -18 -6 2 -6 14 -8 30 -6 38 3 7 -4 19 -16 27 -24 17
-16 36 16 36 22 0 23 -3 16 -41z m124 6 c4 -11 -1 -15 -19 -15 -16 0 -25 6
-25 15 0 8 9 15 19 15 10 0 21 -7 25 -15z m85 -95 c14 -9 0 -80 -15 -80 -8 0
-14 5 -14 10 0 6 4 10 10 10 5 0 1 23 -10 50 -11 28 -20 63 -19 78 0 24 3 22
20 -18 11 -24 24 -47 28 -50z m-178 40 c5 0 9 -12 9 -26 0 -46 -25 -21 -26 27
-1 24 0 34 3 22 2 -13 9 -23 14 -23z m69 -56 c0 -2 -7 -4 -15 -4 -8 0 -15 4
-15 10 0 5 7 7 15 4 8 -4 15 -8 15 -10z m60 6 c0 -5 -9 -10 -19 -10 -11 0 -23
5 -26 10 -4 6 5 10 19 10 14 0 26 -4 26 -10z m-166 -45 c-3 -6 6 -21 18 -33
57 -54 80 -72 93 -72 22 0 18 -21 -4 -27 -12 -3 -22 -16 -24 -32 -2 -15 -5 -6
-6 21 -1 39 -6 50 -30 67 -35 25 -56 26 -95 6 -24 -13 -31 -13 -38 -3 -4 7 -8
9 -8 3 -1 -11 -30 24 -30 35 0 4 10 6 23 4 12 -1 26 -3 31 -3 4 -1 6 -7 3 -15
-4 -10 0 -12 14 -9 27 8 34 23 10 23 -28 0 -26 14 4 30 14 7 25 20 25 29 0 13
2 14 9 2 5 -8 7 -19 5 -26z m61 -35 c3 -5 11 -10 16 -10 6 0 7 5 4 10 -8 13
36 13 69 0 29 -10 45 -55 27 -73 -8 -8 -11 -5 -11 14 0 22 -3 24 -38 21 -26
-3 -44 1 -55 12 -8 9 -20 16 -26 16 -6 0 -11 5 -11 10 0 6 4 10 9 10 6 0 13
-4 16 -10z m193 -122 c-7 -107 -5 -98 -17 -98 -12 0 -25 141 -16 169 3 11 14
21 23 21 15 0 16 -10 10 -92z m-1041 10 c-3 -8 -6 -5 -6 6 -1 11 2 17 5 13 3
-3 4 -12 1 -19z m960 -20 c-3 -7 -5 -2 -5 12 0 14 2 19 5 13 2 -7 2 -19 0 -25z
m13 -62 c0 -25 -4 -48 -10 -51 -5 -3 -10 3 -10 14 0 12 -3 21 -7 21 -5 0 -17
7 -27 15 -20 15 -20 15 0 30 37 28 54 19 54 -29z m-781 -30 c-24 -22 -26 -30
-22 -73 3 -26 10 -56 14 -65 13 -24 11 -31 -5 -25 -10 4 -12 0 -8 -15 4 -16 1
-19 -19 -16 -14 2 -25 11 -27 22 -3 14 0 17 11 13 10 -4 18 1 21 11 6 20 -1
129 -9 143 -4 5 2 9 12 9 15 0 16 2 3 10 -11 7 -6 10 20 10 l35 0 -26 -24z
m-219 -22 c0 -8 5 -14 10 -14 20 0 10 -39 -16 -66 -24 -23 -26 -24 -21 -5 3
12 1 21 -4 21 -10 0 -13 73 -3 83 10 9 34 -4 34 -19z m1037 -50 c2 -5 -7 -25
-19 -44 l-21 -35 -8 29 c-5 17 -6 32 -4 35 3 2 5 -1 5 -7 0 -7 5 -12 11 -12 6
0 8 7 5 16 -3 9 -3 20 0 25 7 12 26 7 31 -7z m-45 -116 c-5 -20 -6 -21 -12 -3
-4 13 -9 15 -14 7 -10 -17 -63 -15 -70 3 -4 12 5 15 48 15 51 0 54 -1 48 -22z
m-647 -8 c3 -5 -3 -10 -15 -10 -12 0 -18 5 -15 10 3 6 10 10 15 10 5 0 12 -4
15 -10z m582 -55 c-1 -25 -5 -45 -9 -45 -5 0 -8 6 -8 13 0 9 -3 8 -9 -2 -5 -8
-11 -9 -15 -3 -3 6 -21 8 -39 5 l-32 -5 22 21 c12 12 31 21 43 21 11 0 20 5
20 11 0 5 4 7 10 4 6 -3 7 1 4 9 -3 9 -1 16 4 16 7 0 10 -19 9 -45z m-499 10
c-3 -3 -9 2 -12 12 -6 14 -5 15 5 6 7 -7 10 -15 7 -18z m312 15 c0 -5 -15 -11
-32 -11 l-33 -1 30 -7 c17 -3 31 -14 33 -24 3 -14 -4 -17 -33 -17 -34 0 -36 2
-33 27 2 19 10 29 28 34 36 10 40 10 40 -1z m-163 -42 c-3 -8 -6 -5 -6 6 -1
11 2 17 5 13 3 -3 4 -12 1 -19z m-77 -18 c0 -5 -2 -10 -4 -10 -3 0 -8 5 -11
10 -3 6 -1 10 4 10 6 0 11 -4 11 -10z m-196 -8 c-6 -4 -16 -16 -22 -27 -11
-20 -11 -20 -12 2 0 20 11 31 35 32 6 0 5 -2 -1 -7z m535 -50 c-24 -17 -33
-11 -24 17 5 17 9 19 25 9 18 -12 18 -12 -1 -26z m-579 -2 c0 -5 -9 -6 -20 -3
-11 3 -17 9 -15 14 7 10 35 1 35 -11z m190 -100 c0 -5 -15 -10 -32 -10 -25 0
-29 3 -18 10 20 13 50 13 50 0z m4195 -480 c3 -6 -1 -7 -9 -4 -18 7 -21 14 -7
14 6 0 13 -4 16 -10z m-66 -16 c2 -2 -8 -4 -22 -4 -15 0 -27 -4 -27 -10 0 -5
-19 -9 -42 -9 -30 2 -35 3 -15 6 33 5 36 20 5 26 -13 3 4 2 37 -1 33 -2 62 -6
64 -8z m31 -4 c0 -5 -2 -10 -4 -10 -3 0 -8 5 -11 10 -3 6 -1 10 4 10 6 0 11
-4 11 -10z m-170 -10 c0 -5 -2 -10 -4 -10 -3 0 -8 5 -11 10 -3 6 -1 10 4 10 6
0 11 -4 11 -10z m205 0 c3 -5 1 -10 -4 -10 -6 0 -11 5 -11 10 0 6 2 10 4 10 3
0 8 -4 11 -10z m-74 -30 c17 0 9 -19 -11 -25 -23 -7 -60 2 -60 15 0 10 30 19
48 14 8 -2 18 -4 23 -4z m-237 -51 c-3 -5 -13 -9 -22 -9 -36 -1 -73 -50 -38
-50 8 0 27 -5 43 -11 l28 -12 -30 -8 c-16 -5 -51 -6 -76 -3 l-46 6 -7 -41 c-5
-36 -10 -41 -32 -41 -20 0 -29 -9 -44 -42 -11 -24 -20 -37 -20 -30 0 7 -4 10
-10 7 -5 -3 -10 -44 -10 -91 0 -49 -4 -84 -10 -84 -18 0 -12 172 6 198 9 13
13 29 11 36 -3 8 5 18 18 24 31 14 69 69 53 75 -7 3 -3 6 9 6 12 1 26 7 30 14
4 7 21 23 37 35 16 12 25 22 20 22 -5 0 -2 5 6 10 8 5 22 7 31 4 10 -3 19 3
24 13 6 17 7 17 20 -1 8 -10 12 -23 9 -27z m-274 -184 c0 -8 -4 -15 -10 -15
-5 0 -10 7 -10 15 0 8 5 15 10 15 6 0 10 -7 10 -15z m367 -47 c-2 -13 -4 -3
-4 22 0 25 2 35 4 23 2 -13 2 -33 0 -45z m-247 42 c0 -5 -5 -10 -11 -10 -5 0
-7 5 -4 10 3 6 8 10 11 10 2 0 4 -4 4 -10z m-165 -192 c-4 -13 -11 -50 -15
-83 -7 -57 -7 -58 -8 -15 -2 60 8 120 20 120 6 0 7 -9 3 -22z m343 -58 c-1
-16 -9 -32 -16 -35 -11 -4 -13 0 -8 17 3 13 6 29 6 36 0 6 5 12 10 12 6 0 9
-13 8 -30z m-330 -136 c4 2 14 1 22 -5 13 -7 12 -9 -2 -9 -31 0 -48 12 -47 34
0 20 1 20 10 -2 5 -13 12 -21 17 -18z m112 -14 c0 -13 -7 -20 -20 -20 -23 0
-25 5 -7 25 17 20 27 18 27 -5z m-80 -30 c0 -5 -7 -7 -15 -4 -8 4 -15 8 -15
10 0 2 7 4 15 4 8 0 15 -4 15 -10z m40 -40 c0 -5 -4 -10 -10 -10 -5 0 -10 5
-10 10 0 6 5 10 10 10 6 0 10 -4 10 -10z m-24 -108 c-4 -3 -11 0 -16 8 -15 24
-11 33 6 15 9 -9 13 -19 10 -23z"/>
<path d="M3948 5513 c7 -3 16 -2 19 1 4 3 -2 6 -13 5 -11 0 -14 -3 -6 -6z"/>
<path d="M3090 5100 c0 -5 5 -10 10 -10 6 0 10 5 10 10 0 6 -4 10 -10 10 -5 0
-10 -4 -10 -10z"/>
<path d="M988 3763 c7 -3 16 -2 19 1 4 3 -2 6 -13 5 -11 0 -14 -3 -6 -6z"/>
<path d="M808 3583 c7 -3 16 -2 19 1 4 3 -2 6 -13 5 -11 0 -14 -3 -6 -6z"/>
<path d="M3056 5796 c-15 -21 -22 -37 -16 -41 5 -3 10 -1 10 5 0 7 8 9 20 5
21 -7 29 10 8 18 -10 3 -10 8 1 18 10 11 15 11 18 2 3 -7 9 -13 14 -13 6 0 5
8 -1 20 -15 28 -24 25 -54 -14z"/>
<path d="M3581 5653 c-1 -17 4 -35 9 -38 11 -7 11 9 0 45 -8 24 -8 24 -9 -7z"/>
<path d="M3592 5580 c0 -14 2 -19 5 -12 2 6 2 18 0 25 -3 6 -5 1 -5 -13z"/>
<path d="M2950 5314 c0 -8 5 -12 10 -9 6 4 8 11 5 16 -9 14 -15 11 -15 -7z"/>
<path d="M2956 5281 c-3 -4 -1 -13 4 -20 8 -15 40 -8 40 8 0 11 -38 22 -44 12z"/>
<path d="M3123 5248 c1 -14 10 -18 37 -18 26 0 31 3 20 10 -13 8 -12 10 3 10
36 0 15 15 -22 15 -32 1 -39 -3 -38 -17z"/>
<path d="M3010 5240 c0 -5 4 -10 9 -10 6 0 13 5 16 10 3 6 -1 10 -9 10 -9 0
-16 -4 -16 -10z"/>
<path d="M3010 5200 c0 -5 4 -10 9 -10 6 0 13 5 16 10 3 6 -1 10 -9 10 -9 0
-16 -4 -16 -10z"/>
<path d="M392 4653 l-22 -4 2 -232 3 -232 210 -3 211 -2 22 45 22 45 94 0 94
0 26 -45 c22 -37 32 -45 56 -45 17 0 30 2 30 5 0 13 -160 322 -177 344 -12 14
-26 22 -35 19 -8 -3 -50 -75 -93 -160 l-78 -153 -158 3 -159 3 -2 206 c-2 128
-7 207 -13 208 -5 1 -20 0 -33 -2z m578 -263 c13 -27 21 -52 18 -55 -7 -7 -97
-9 -104 -2 -7 7 44 107 54 107 5 0 19 -22 32 -50z"/>
<path d="M1213 4653 c-10 -3 -13 -61 -13 -239 l0 -234 30 0 30 0 0 170 c0 94
3 170 8 170 4 0 38 -46 75 -103 37 -56 76 -113 86 -126 l18 -23 83 126 c46 69
87 126 92 126 4 0 8 -76 8 -170 l0 -170 30 0 30 0 -2 238 -3 237 -25 0 c-21 0
-40 -22 -115 -134 -50 -74 -95 -136 -100 -137 -6 -2 -50 59 -100 134 -85 130
-103 148 -132 135z"/>
<path d="M1827 4654 c-4 -4 -7 -112 -7 -241 l0 -233 35 0 35 0 -2 238 -3 237
-25 3 c-14 2 -29 0 -33 -4z"/>
<path d="M1955 4651 c-3 -5 36 -94 86 -198 50 -103 100 -207 111 -230 15 -32
26 -43 42 -43 18 0 30 16 61 83 21 45 71 149 111 231 40 82 71 152 69 156 -2
4 -17 7 -32 6 -26 -1 -34 -13 -114 -175 -47 -96 -90 -176 -95 -178 -6 -2 -23
25 -39 59 -66 144 -136 283 -148 290 -17 11 -45 10 -52 -1z"/>
<path d="M2460 4365 l0 -185 180 0 180 0 0 30 0 29 -147 3 -148 3 0 50 0 50
93 3 c90 3 92 3 92 27 0 24 -2 24 -92 27 l-93 3 0 40 0 40 143 3 143 3 -3 27
-3 27 -172 3 -173 2 0 -185z"/>
<path d="M2830 4520 l0 -30 75 0 74 0 3 -152 3 -153 30 0 30 0 3 153 3 152 74
0 75 0 0 30 0 30 -185 0 -185 0 0 -30z"/>
<path d="M742 3545 c-6 -14 -8 -25 -3 -25 8 0 23 41 17 47 -1 2 -8 -8 -14 -22z"/>
<path d="M1390 3539 c0 -16 -5 -20 -18 -17 -11 3 -19 0 -19 -7 0 -7 6 -11 14
-8 7 3 13 0 13 -6 0 -19 29 -12 41 10 8 15 8 24 0 32 -8 8 -11 3 -11 -17 0
-15 -4 -25 -9 -22 -4 3 -6 17 -3 31 2 14 2 25 -2 25 -3 0 -6 -10 -6 -21z"/>
<path d="M1074 3435 c-4 -8 -3 -23 0 -32 11 -26 -17 -35 -29 -9 -10 22 -12 22
-75 12 l-64 -11 -3 -44 c-2 -24 -8 -50 -14 -58 -9 -11 -8 -12 5 -7 9 4 16 17
16 34 0 45 28 71 82 74 26 2 46 0 43 -4 -6 -9 21 -33 41 -36 8 -1 11 2 8 8 -4
6 -3 13 2 17 5 3 15 18 21 33 10 22 9 27 -3 32 -22 8 -24 8 -30 -9z m26 -14
c0 -6 -4 -13 -10 -16 -5 -3 -10 1 -10 9 0 9 5 16 10 16 6 0 10 -4 10 -9z"/>
<path d="M880 3414 c0 -11 6 -14 23 -8 47 14 53 23 15 24 -28 0 -38 -4 -38
-16z"/>
<path d="M881 3364 c0 -11 3 -14 6 -6 3 7 2 16 -1 19 -3 4 -6 -2 -5 -13z"/>
<path d="M1053 3266 c2 -6 10 -11 18 -11 9 0 13 -10 12 -29 -3 -34 -11 -45
-22 -27 -7 10 -10 9 -14 -3 -5 -12 0 -16 22 -16 44 0 56 21 34 62 -17 30 -59
51 -50 24z"/>
<path d="M1520 3260 c0 -5 5 -10 11 -10 5 0 7 5 4 10 -3 6 -8 10 -11 10 -2 0
-4 -4 -4 -10z"/>
<path d="M1159 3148 c-7 -24 -7 -58 1 -63 5 -3 10 0 10 9 0 8 6 17 13 19 9 4
8 8 -3 16 -8 6 -10 11 -4 11 5 0 20 -13 32 -30 26 -35 42 -39 42 -10 0 13 -12
25 -36 35 -34 14 -53 18 -55 13z"/>
<path d="M1373 3140 c-14 -6 -23 -18 -23 -30 0 -12 -4 -19 -10 -15 -5 3 -7 12
-3 20 3 8 0 15 -6 15 -17 0 -13 -35 7 -53 16 -15 18 -15 20 3 4 44 6 50 14 50
5 0 13 -11 18 -25 5 -14 14 -25 20 -25 5 0 10 -6 10 -14 0 -8 7 -16 15 -20 13
-5 13 -2 -1 19 -9 13 -14 30 -11 37 5 15 -10 48 -21 47 -4 0 -17 -4 -29 -9z
m34 -37 c-3 -10 -5 -4 -5 12 0 17 2 24 5 18 2 -7 2 -21 0 -30z"/>
<path d="M1366 3044 c-4 -20 -5 -38 -3 -40 3 -3 8 11 11 32 4 20 5 38 3 40 -3
3 -8 -11 -11 -32z"/>
<path d="M1401 3054 c0 -11 3 -14 6 -6 3 7 2 16 -1 19 -3 4 -6 -2 -5 -13z"/>
<path d="M863 2902 c12 -13 33 -32 47 -42 26 -18 26 -18 25 3 -1 39 -20 59
-58 61 l-36 1 22 -23z"/>
<path d="M5620 2192 c0 -13 36 -26 49 -17 5 3 12 1 15 -4 3 -5 -13 -8 -36 -7
-37 1 -43 -2 -49 -24 -4 -14 -8 -20 -8 -15 -2 11 -31 -52 -31 -66 0 -5 5 -9
11 -9 6 0 8 7 5 16 -4 10 -1 14 6 11 7 -2 12 -12 10 -22 -2 -9 1 -14 6 -11 16
10 22 -48 7 -60 -8 -6 -12 -14 -8 -17 3 -4 3 -7 -2 -7 -4 0 -14 8 -22 18 -10
11 -10 8 1 -10 9 -16 12 -28 6 -28 -6 0 -14 -8 -17 -17 -9 -24 -40 -52 -49
-45 -4 4 -4 -1 -1 -10 4 -12 1 -18 -8 -18 -8 0 -15 -4 -15 -10 0 -5 -7 -10
-15 -10 -8 0 -15 -6 -15 -14 0 -24 17 -28 23 -6 14 53 73 -8 72 -75 0 -35 -3
-40 -23 -41 -13 -1 -29 -7 -35 -14 -10 -10 -5 -11 23 -5 47 10 62 23 53 49 -3
12 -6 32 -5 45 1 14 -6 30 -18 38 -24 17 -26 51 -5 59 15 6 65 -37 65 -57 0
-5 5 -9 11 -9 6 0 8 7 5 16 -3 9 -6 18 -6 20 0 2 -7 4 -15 4 -8 0 -15 4 -15 9
0 5 -7 17 -16 25 -14 15 -14 17 0 22 9 3 16 10 16 16 0 5 -6 6 -12 3 -7 -3 -3
2 10 11 12 9 22 22 22 29 0 7 6 18 13 24 8 6 13 23 12 38 -2 19 -1 20 2 6 2
-13 8 -23 13 -23 5 0 11 10 13 23 4 21 4 21 6 1 0 -11 -10 -34 -25 -50 -34
-39 -48 -64 -35 -64 6 0 18 -11 27 -25 13 -20 14 -28 4 -40 -7 -9 -10 -19 -6
-22 4 -4 12 -1 17 7 8 11 9 10 4 -7 -4 -15 -2 -23 6 -23 7 0 9 10 6 30 -6 29
6 42 16 18 3 -8 6 -6 6 5 1 9 6 17 11 17 6 0 10 10 10 23 0 12 5 29 10 37 8
11 9 7 5 -15 -6 -29 -6 -29 9 -11 16 19 16 19 16 -4 0 -13 3 -21 6 -17 20 20
-42 127 -66 112 -6 -3 -10 4 -10 17 1 20 2 21 13 7 7 -9 22 -19 35 -23 19 -6
25 -2 37 26 8 18 14 27 15 19 0 -7 18 -29 40 -48 22 -20 40 -40 40 -47 0 -6
-5 -4 -10 4 -8 13 -10 12 -10 -2 0 -22 -16 -24 -24 -3 -3 8 -12 15 -21 15 -10
0 -15 10 -16 33 l-1 32 -14 -33 c-14 -32 -10 -67 5 -43 5 8 13 6 27 -4 13 -10
14 -13 3 -10 -13 5 -15 0 -11 -26 6 -38 -22 -67 -45 -47 -11 8 -12 7 -7 -6 3
-9 10 -16 15 -16 5 0 9 -4 9 -10 0 -5 -8 -6 -17 -3 -16 6 -16 5 -4 -11 8 -9
16 -39 18 -65 3 -47 2 -48 -22 -43 -15 2 -25 0 -25 -7 0 -6 -4 -11 -10 -11
-24 0 -7 28 23 38 l32 10 -28 1 c-16 1 -26 5 -22 10 3 5 1 12 -5 16 -6 4 -10
-5 -10 -20 0 -15 -4 -24 -10 -20 -6 3 -7 -1 -4 -9 3 -9 2 -16 -4 -16 -14 0
-42 46 -42 70 0 11 -4 20 -10 20 -11 0 -1 -63 12 -68 4 -2 8 -13 8 -25 -1 -20
-2 -21 -14 -4 -17 22 -24 22 -47 -5 -21 -26 -24 -38 -9 -38 6 0 10 7 10 15 0
21 36 19 45 -2 6 -16 8 -15 16 5 16 43 54 24 55 -29 1 -29 -2 -35 -19 -34 -11
1 -26 10 -34 21 -11 13 -17 15 -20 7 -3 -7 -12 -13 -21 -13 -14 0 -14 -2 -3
-9 10 -7 7 -9 -12 -8 -25 2 -40 17 -17 17 6 0 10 5 10 10 0 18 -18 11 -25 -10
-6 -18 -8 -18 -21 -5 -20 19 -34 19 -34 -1 0 -14 -1 -14 -16 0 -30 30 -44 13
-44 -54 0 -38 -1 -39 -37 -42 -31 -2 -39 -7 -41 -25 -2 -13 -8 -23 -13 -23 -5
0 -9 -6 -9 -14 0 -11 -20 -26 -35 -26 -11 0 -10 59 1 86 18 43 12 43 -21 0
-22 -29 -24 -38 -15 -55 9 -17 8 -20 -5 -15 -8 4 -15 11 -15 18 0 6 -7 3 -14
-6 -7 -10 -18 -18 -25 -18 -6 0 -11 -4 -11 -8 0 -11 -134 -77 -195 -96 -32
-10 -39 -14 -17 -11 18 3 32 0 32 -6 0 -11 28 -5 73 17 27 12 28 12 25 -9 -3
-21 -8 -22 -95 -22 -50 0 -86 3 -80 7 7 4 -1 8 -17 8 l-29 0 24 -26 c33 -36
143 -114 160 -114 11 0 11 3 -1 11 -13 9 -12 10 3 5 10 -3 20 0 23 8 4 10 18
13 50 10 27 -3 44 0 44 6 0 6 4 9 9 6 5 -4 12 0 14 6 4 9 6 8 6 -2 1 -13 17
-15 106 -12 72 3 105 1 105 -7 0 -7 -29 -11 -80 -11 -47 0 -80 -4 -80 -10 0
-5 -4 -10 -10 -10 -5 0 -7 6 -4 14 4 11 0 13 -15 9 -11 -3 -18 -9 -15 -14 8
-14 -6 -30 -19 -22 -7 4 -16 8 -22 9 -5 1 -19 6 -30 10 -18 7 -18 6 -6 -9 18
-23 -5 -24 -30 -1 -11 10 -19 12 -24 5 -13 -22 92 -50 215 -58 86 -5 190 10
190 28 0 6 5 7 11 3 6 -3 21 -2 32 4 12 5 36 15 53 21 16 7 42 23 56 36 14 13
29 21 32 17 4 -3 4 1 1 10 -6 16 -9 15 -28 -2 -11 -11 -27 -20 -34 -20 -7 0
-13 -7 -13 -15 0 -10 -11 -15 -35 -15 -19 0 -35 -5 -35 -11 0 -6 -6 -9 -12 -6
-7 2 -12 9 -11 15 2 6 -4 9 -12 6 -8 -4 -12 -10 -9 -15 3 -5 -13 -9 -36 -9
-46 0 -53 22 -9 28 13 2 29 8 36 14 7 5 17 7 24 3 6 -4 26 -9 44 -12 29 -4 32
-2 30 20 -3 23 0 24 32 20 32 -4 34 -3 28 16 -5 18 -2 21 22 21 15 0 34 -4 42
-9 10 -7 26 4 57 37 24 26 44 52 44 59 0 6 4 13 8 15 11 4 62 98 62 112 0 6
-8 2 -17 -9 -15 -19 -15 -19 -8 10 3 16 3 26 -2 22 -12 -12 -32 -88 -22 -81 5
3 9 1 9 -5 0 -18 -17 -21 -36 -6 -10 8 -27 15 -36 15 -26 0 -23 36 3 43 38 10
-2 37 -55 37 l-46 0 0 38 0 38 40 -4 c26 -3 44 1 55 11 18 19 20 63 3 70 -7 3
8 6 35 6 l47 1 0 -39 c0 -34 3 -39 28 -44 15 -3 29 -3 32 0 11 10 4 202 -9
256 -17 67 -33 76 -25 13 10 -68 1 -81 -33 -48 -15 15 -25 29 -22 32 3 3 9 20
12 38 5 23 3 31 -5 26 -7 -4 -8 -3 -4 4 4 7 18 9 32 6 22 -6 24 -4 15 17 -15
41 -67 124 -94 151 -20 21 -27 23 -31 11 -9 -22 -7 -26 8 -20 14 6 46 -21 46
-38 0 -5 7 -17 17 -27 10 -11 12 -18 4 -18 -6 0 -21 15 -32 34 -19 32 -21 33
-50 22 -26 -9 -33 -8 -43 6 -10 13 -15 15 -24 6 -9 -9 -12 -9 -12 3 0 12 -2
12 -10 -1 -9 -13 -11 -13 -20 0 -8 12 -12 13 -19 2 -6 -11 -10 -10 -15 3 -10
27 -8 28 32 22 31 -5 40 -3 50 14 8 12 9 18 3 14 -6 -3 -11 1 -11 9 0 9 7 16
15 16 20 0 19 13 -3 33 -14 13 -21 14 -30 5 -8 -8 -15 -8 -27 2 -9 7 -15 8
-15 2z m90 -232 c0 -5 -4 -10 -10 -10 -5 0 -10 5 -10 10 0 6 5 10 10 10 6 0
10 -4 10 -10z m-26 -13 c25 -18 18 -72 -9 -72 -10 0 -26 12 -34 27 -13 22 -13
29 -2 42 16 19 22 20 45 3z m136 -157 c0 -40 -25 -40 -26 0 -1 19 4 30 12 30
9 0 14 -11 14 -30z m-62 -123 c7 -33 -7 -65 -25 -63 -25 4 -40 50 -23 71 17
20 44 15 48 -8z m-118 -57 c0 -5 -4 -10 -10 -10 -5 0 -10 5 -10 10 0 6 5 10
10 10 6 0 10 -4 10 -10z m-200 -145 c0 -14 -4 -25 -10 -25 -11 0 -14 33 -3 43
11 11 13 8 13 -18z m182 -59 c-3 -11 -2 -18 3 -14 12 11 35 -18 35 -46 0 -19
-5 -26 -20 -26 -11 0 -20 -4 -20 -10 0 -5 -4 -10 -10 -10 -14 0 -12 37 3 43 8
4 9 8 1 14 -6 4 -9 27 -6 52 3 25 7 38 12 31 4 -7 5 -22 2 -34z m-25 -8 c-3
-7 -5 -2 -5 12 0 14 2 19 5 13 2 -7 2 -19 0 -25z m-402 2 c-8 -13 -2 -13 30 2
20 9 28 9 38 -1 9 -10 8 -15 -7 -27 -13 -9 -15 -14 -6 -14 9 0 7 -5 -6 -15
-18 -14 -16 -17 16 -19 11 -1 15 -13 15 -46 0 -39 -2 -45 -20 -42 -11 2 -27 4
-36 5 -10 1 -16 13 -18 37 -1 19 -7 37 -13 39 -6 2 -5 7 3 12 11 7 10 9 -3 9
-10 0 -18 5 -18 10 0 6 -12 10 -26 10 -14 0 -23 4 -20 9 3 4 18 6 32 3 19 -3
25 -1 20 7 -8 13 1 31 15 31 6 0 7 -4 4 -10z m591 -33 c20 -11 17 -25 -7 -37
-19 -11 -20 -10 -9 10 8 15 8 20 1 16 -7 -5 -11 3 -10 21 0 16 3 22 6 13 3 -8
12 -19 19 -23z m-763 -77 c9 0 17 -7 17 -15 0 -8 -4 -15 -10 -15 -5 0 -10 5
-10 10 0 6 -5 10 -10 10 -7 0 -7 -7 0 -21 7 -12 18 -18 26 -15 9 3 12 1 9 -4
-15 -24 -68 10 -58 36 3 8 -1 14 -11 14 -9 0 -16 -5 -16 -11 0 -5 -5 -7 -11
-3 -17 10 12 25 36 19 11 -2 28 -5 38 -5z m105 -17 c-16 -38 -16 -37 -33 -23
-21 17 -19 30 4 30 11 0 23 5 26 10 12 20 14 9 3 -17z m459 -7 c4 -4 -15 -6
-42 -5 -28 2 -62 -1 -77 -5 -23 -7 -28 -5 -28 9 0 14 9 16 70 12 39 -2 74 -7
77 -11z m53 -6 c0 -5 -4 -10 -9 -10 -6 0 -13 5 -16 10 -3 6 1 10 9 10 9 0 16
-4 16 -10z m-165 -110 c-3 -5 -13 -10 -21 -10 -8 0 -14 5 -14 10 0 6 9 10 21
10 11 0 17 -4 14 -10z"/>
<path d="M5417 2142 c-4 -19 -13 -32 -22 -32 -8 0 -15 -7 -15 -16 0 -14 3 -14
15 -4 12 10 15 10 16 -1 1 -8 4 -3 8 11 6 21 13 25 44 24 29 -1 35 2 27 11
-15 18 -50 26 -51 12 0 -7 -4 -3 -8 8 -7 16 -9 14 -14 -13z"/>
<path d="M5386 2151 c-4 -7 -5 -15 -2 -18 9 -9 19 4 14 18 -4 11 -6 11 -12 0z"/>
<path d="M5720 2137 c0 -8 7 -17 15 -21 8 -3 15 -2 15 3 0 5 -7 14 -15 21 -12
10 -15 10 -15 -3z"/>
<path d="M5496 2073 c-4 -9 -2 -21 4 -27 7 -7 10 -7 10 1 0 6 3 18 6 27 3 9 2
16 -4 16 -5 0 -13 -8 -16 -17z"/>
<path d="M5526 2071 c-4 -5 -3 -16 0 -24 3 -10 -3 -20 -16 -27 -26 -14 -17
-30 16 -30 21 0 23 3 15 19 -6 10 -7 21 -4 25 10 9 11 46 2 46 -4 0 -10 -4
-13 -9z"/>
<path d="M5366 2055 c25 -19 40 -19 24 0 -7 8 -20 15 -28 15 -13 0 -12 -3 4
-15z"/>
<path d="M5418 2063 c6 -2 18 -2 25 0 6 3 1 5 -13 5 -14 0 -19 -2 -12 -5z"/>
<path d="M5472 2040 c7 -10 14 -18 15 -16 6 6 -9 36 -18 36 -5 0 -4 -9 3 -20z"/>
<path d="M5271 2024 c0 -11 3 -14 6 -6 3 7 2 16 -1 19 -3 4 -6 -2 -5 -13z"/>
<path d="M5360 2030 c0 -5 -10 -10 -22 -11 -15 0 -18 -2 -8 -6 17 -6 40 -32
40 -46 0 -4 -5 -5 -11 -1 -9 5 -10 -3 -5 -30 5 -24 3 -36 -4 -36 -6 0 -8 -4
-5 -10 14 -23 27 -9 22 24 -5 31 -3 33 16 29 17 -4 19 -2 8 5 -8 6 -12 19 -8
31 3 14 0 21 -10 21 -10 0 -12 6 -8 20 3 11 4 20 1 20 -3 0 -6 -4 -6 -10z"/>
<path d="M5386 2021 c-3 -5 1 -12 10 -15 22 -8 25 -4 9 11 -8 7 -16 9 -19 4z"/>
<path d="M5460 1972 c0 -25 -19 -42 -38 -34 -14 5 -15 4 -2 -10 8 -9 20 -13
25 -10 6 3 0 -6 -12 -20 -13 -13 -23 -32 -23 -41 0 -11 -8 -17 -22 -17 -12 0
-19 -3 -15 -6 3 -4 18 -3 32 0 20 5 25 11 20 26 -9 27 30 37 56 14 10 -9 19
-12 19 -7 0 6 -6 13 -14 16 -17 7 -24 36 -15 67 4 16 7 19 8 8 1 -24 21 -23
21 1 0 10 -7 22 -16 25 -23 9 -24 8 -24 -12z"/>
<path d="M422 1818 l3 -112 60 1 c78 2 75 1 75 13 0 6 -25 10 -55 10 l-55 0 0
100 c0 83 -3 100 -15 100 -13 0 -15 -17 -13 -112z"/>
<path d="M770 1820 c0 -87 3 -110 14 -110 7 0 27 -3 44 -6 44 -9 82 30 82 86
0 54 -29 83 -76 78 -33 -4 -34 -3 -34 29 0 23 -5 33 -15 33 -12 0 -15 -19 -15
-110z m101 14 c27 -33 6 -114 -31 -114 -21 0 -42 30 -43 62 -1 40 16 68 43 68
10 0 23 -7 31 -16z"/>
<path d="M1553 1915 c-9 -25 2 -27 22 -5 17 18 17 20 1 20 -9 0 -19 -7 -23
-15z"/>
<path d="M1780 1915 c0 -8 5 -15 10 -15 6 0 10 7 10 15 0 8 -4 15 -10 15 -5 0
-10 -7 -10 -15z"/>
<path d="M2220 1896 c0 -34 -1 -35 -30 -30 -19 4 -38 1 -55 -10 -21 -14 -25
-24 -25 -66 0 -68 22 -91 86 -86 l47 4 1 108 c1 78 -2 108 -11 111 -9 3 -13
-7 -13 -31z m-12 -58 c30 -30 5 -118 -33 -118 -20 0 -45 40 -45 72 0 46 49 75
78 46z"/>
<path d="M2562 1818 c2 -69 7 -112 13 -110 6 1 10 26 11 55 3 129 3 129 35 38
16 -47 33 -89 37 -93 13 -13 27 10 51 85 13 37 27 67 32 67 5 0 9 -34 9 -75 0
-109 20 -95 22 15 1 50 2 98 2 108 1 10 -7 18 -19 20 -18 2 -25 -10 -50 -88
-16 -49 -32 -90 -35 -90 -4 0 -20 39 -37 88 -24 70 -34 88 -52 90 -21 3 -22 2
-19 -110z"/>
<path d="M2822 1919 c2 -6 8 -10 13 -10 5 0 11 4 13 10 2 6 -4 11 -13 11 -9 0
-15 -5 -13 -11z"/>
<path d="M3330 1820 c0 -87 3 -110 14 -110 7 0 27 -3 44 -6 61 -12 101 63 70
130 -13 29 -39 40 -74 32 -22 -6 -24 -3 -24 29 0 24 -5 35 -15 35 -12 0 -15
-19 -15 -110z m108 -2 c25 -53 -13 -112 -58 -88 -19 10 -25 31 -20 75 5 51 56
59 78 13z"/>
<path d="M3510 1915 c0 -8 5 -15 10 -15 6 0 10 7 10 15 0 8 -4 15 -10 15 -5 0
-10 -7 -10 -15z"/>
<path d="M3757 1923 c-2 -5 -4 -54 -5 -110 -1 -83 2 -103 14 -103 11 0 14 21
14 110 0 96 -8 130 -23 103z"/>
<path d="M4180 1915 c0 -8 5 -15 10 -15 6 0 10 7 10 15 0 8 -4 15 -10 15 -5 0
-10 -7 -10 -15z"/>
<path d="M1414 1898 c-4 -13 -12 -27 -18 -31 -8 -6 -8 -10 2 -14 7 -3 12 -26
12 -63 0 -56 15 -90 40 -90 17 0 21 20 6 26 -12 5 -16 21 -16 65 0 49 3 59 18
59 16 1 16 1 0 14 -10 7 -18 23 -18 35 0 28 -17 27 -26 -1z"/>
<path d="M607 1852 c-22 -24 -9 -37 14 -16 24 22 74 15 74 -11 0 -15 -9 -21
-37 -26 -49 -8 -70 -26 -66 -58 4 -32 49 -52 77 -34 10 7 27 10 37 7 17 -5 19
1 17 67 -1 48 -6 75 -15 80 -24 16 -84 10 -101 -9z m93 -92 c0 -25 -35 -43
-67 -35 -35 8 -26 37 17 51 40 14 50 10 50 -16z"/>
<path d="M961 1844 c-29 -37 -27 -89 4 -119 71 -72 168 38 104 119 -15 19 -30
26 -54 26 -24 0 -39 -7 -54 -26z m87 -6 c17 -17 15 -84 -4 -102 -20 -20 -48
-20 -65 0 -16 19 -15 79 1 99 15 18 51 20 68 3z"/>
<path d="M1130 1804 c0 -34 -3 -69 -6 -78 -4 -11 -1 -16 10 -16 13 0 16 11 16
53 0 58 8 77 35 81 39 6 26 25 -14 23 l-41 -1 0 -62z"/>
<path d="M1246 1851 c-10 -11 -13 -22 -8 -25 5 -3 15 1 22 9 18 22 57 19 70
-5 12 -23 10 -24 -53 -35 -28 -4 -41 -13 -50 -32 -10 -22 -8 -28 12 -44 26
-22 44 -24 72 -8 15 7 24 7 35 -2 16 -13 16 -14 14 71 -1 36 -6 70 -12 77 -16
20 -82 16 -102 -6z m94 -81 c0 -17 -39 -50 -60 -50 -29 0 -38 30 -15 46 22 16
75 19 75 4z"/>
<path d="M1510 1850 c-31 -31 -28 -102 6 -129 53 -42 111 -15 121 54 4 31 0
46 -17 68 -27 34 -80 37 -110 7z m90 -19 c25 -48 2 -111 -40 -111 -22 0 -50
36 -50 65 0 54 67 88 90 46z"/>
<path d="M1673 1854 c-8 -21 2 -149 12 -149 6 0 12 28 15 62 5 64 9 73 32 76
7 2 13 7 13 12 0 14 -67 13 -72 -1z"/>
<path d="M1782 1788 c2 -46 7 -83 12 -83 6 0 10 16 9 35 -1 102 -4 130 -13
130 -7 0 -10 -30 -8 -82z"/>
<path d="M1861 1844 c-29 -37 -27 -89 4 -119 50 -51 125 -13 125 63 0 75 -85
112 -129 56z m89 -9 c19 -22 15 -87 -6 -102 -23 -17 -39 -16 -58 3 -19 18 -21
85 -4 102 17 17 53 15 68 -3z"/>
<path d="M2300 1838 c-24 -39 -25 -60 -5 -97 23 -46 80 -56 115 -21 28 28 14
48 -14 21 -27 -26 -48 -27 -69 -3 -30 33 -21 42 43 42 52 0 60 3 60 19 0 35
-38 71 -76 71 -28 0 -38 -6 -54 -32z m88 0 c24 -24 13 -38 -27 -38 -46 0 -58
12 -35 34 18 19 45 21 62 4z"/>
<path d="M2825 1858 c-10 -24 -1 -153 10 -153 13 0 19 145 6 158 -7 7 -12 5
-16 -5z"/>
<path d="M2908 1853 c-40 -46 -24 -136 27 -149 30 -8 73 9 82 31 9 26 -6 30
-27 7 -12 -12 -27 -22 -35 -22 -38 0 -59 66 -35 111 13 23 58 26 66 4 6 -16
34 -21 34 -7 0 18 -38 42 -67 42 -16 0 -37 -8 -45 -17z"/>
<path d="M3052 1785 c3 -92 21 -105 26 -18 3 61 16 87 39 79 7 -3 13 1 13 9 0
10 -11 13 -40 12 l-41 -1 3 -81z"/>
<path d="M3170 1850 c-23 -23 -28 -96 -7 -123 19 -27 78 -33 106 -10 32 26 35
100 7 132 -25 27 -79 28 -106 1z m84 -16 c34 -33 9 -114 -35 -114 -10 0 -25
10 -33 22 -43 61 18 143 68 92z"/>
<path d="M3510 1790 c0 -47 4 -80 10 -80 6 0 10 33 10 80 0 47 -4 80 -10 80
-6 0 -10 -33 -10 -80z"/>
<path d="M3604 1862 c-40 -26 -45 -102 -9 -137 47 -48 112 -21 122 50 7 53
-24 95 -70 95 -18 0 -37 -4 -43 -8z m83 -43 c16 -33 0 -85 -27 -94 -42 -13
-67 19 -61 79 4 52 66 62 88 15z"/>
<path d="M3848 1860 c-29 -18 -41 -73 -24 -114 29 -69 126 -57 140 17 15 79
-52 134 -116 97z m76 -26 c34 -33 9 -114 -35 -114 -23 0 -49 37 -49 72 0 31
23 58 50 58 10 0 26 -7 34 -16z"/>
<path d="M4011 1844 c-37 -47 -23 -113 28 -134 24 -9 34 -10 45 -1 19 16 30
-3 16 -29 -13 -25 -58 -27 -76 -3 -16 22 -32 8 -18 -15 7 -10 27 -18 51 -20
56 -4 74 19 75 99 1 131 4 124 -51 127 -43 2 -52 -1 -70 -24z m93 -26 c20 -58
-28 -112 -70 -78 -17 15 -19 81 -2 98 22 22 62 10 72 -20z"/>
<path d="M4180 1791 c0 -44 5 -83 10 -86 6 -4 10 25 10 79 0 51 -4 86 -10 86
-6 0 -10 -33 -10 -79z"/>
<path d="M4268 1859 c-18 -10 -25 -39 -9 -39 5 0 14 7 21 16 19 22 65 14 65
-11 0 -15 -10 -21 -42 -28 -50 -10 -67 -28 -59 -62 8 -30 47 -42 83 -26 19 9
29 9 39 0 22 -18 20 124 -2 145 -17 18 -70 21 -96 5z m82 -99 c0 -23 -40 -46
-64 -37 -19 8 -21 43 -3 50 6 3 24 6 40 6 21 1 27 -4 27 -19z"/>
<path d="M5707 1841 c-4 -17 -3 -21 5 -13 5 5 8 16 6 23 -3 8 -7 3 -11 -10z"/>
<path d="M5335 1840 c3 -5 8 -10 11 -10 2 0 4 5 4 10 0 6 -5 10 -11 10 -5 0
-7 -4 -4 -10z"/>
<path d="M5587 1813 c-10 -9 -9 -33 1 -33 4 0 8 9 9 20 2 21 0 24 -10 13z"/>
<path d="M5677 1805 c-4 -8 -2 -17 3 -20 6 -4 10 3 10 14 0 25 -6 27 -13 6z"/>
<path d="M5290 1794 c0 -8 5 -12 10 -9 6 4 8 11 5 16 -9 14 -15 11 -15 -7z"/>
<path d="M5504 1762 c3 -6 -1 -12 -10 -14 -15 -3 -15 -4 -2 -16 13 -10 16 -9
21 8 3 11 0 23 -5 27 -6 3 -8 1 -4 -5z"/>
<path d="M5455 1680 c-3 -5 -1 -10 4 -10 6 0 11 5 11 10 0 6 -2 10 -4 10 -3 0
-8 -4 -11 -10z"/>
<path d="M5362 1622 c-7 -9 -10 -11 -6 -3 5 9 3 12 -4 7 -7 -4 -12 -16 -12
-26 0 -10 -4 -21 -9 -24 -12 -8 -1 -53 13 -53 8 0 11 9 8 23 -7 38 16 67 49
62 18 -3 28 -1 26 6 -2 6 -13 10 -23 9 -10 -1 -21 2 -24 7 -3 5 -11 1 -18 -8z"/>
<path d="M5800 1585 c0 -8 2 -15 4 -15 2 0 6 7 10 15 3 8 1 15 -4 15 -6 0 -10
-7 -10 -15z"/>
<path d="M5872 1578 c-15 -15 -16 -32 -2 -23 6 3 10 -3 10 -14 0 -11 5 -23 10
-26 12 -7 13 44 2 62 -6 10 -11 10 -20 1z"/>
<path d="M990 1455 c0 -70 4 -115 10 -115 6 0 10 45 10 115 0 70 -4 115 -10
115 -6 0 -10 -45 -10 -115z"/>
<path d="M1860 1455 c0 -70 4 -115 10 -115 6 0 10 45 10 115 0 70 -4 115 -10
115 -6 0 -10 -45 -10 -115z"/>
<path d="M2280 1555 c0 -9 5 -15 11 -13 6 2 11 8 11 13 0 5 -5 11 -11 13 -6 2
-11 -4 -11 -13z"/>
<path d="M2602 1558 c102 -278 92 -274 167 -69 19 52 25 81 18 81 -7 0 -27
-41 -46 -90 -18 -50 -38 -89 -44 -87 -5 1 -24 42 -41 90 -18 52 -36 87 -44 87
-8 0 -12 -6 -10 -12z"/>
<path d="M3357 1564 c-8 -8 1 -24 14 -24 5 0 9 7 9 15 0 15 -12 20 -23 9z"/>
<path d="M3660 1555 c-21 -25 -1 -31 23 -7 17 18 18 22 5 22 -8 0 -21 -7 -28
-15z"/>
<path d="M3887 1564 c-8 -8 1 -24 14 -24 5 0 9 7 9 15 0 15 -12 20 -23 9z"/>
<path d="M2994 1543 c-3 -10 -10 -26 -15 -35 -5 -11 -5 -19 1 -23 6 -3 10 -32
10 -64 0 -62 16 -89 46 -77 16 6 16 7 0 19 -21 16 -25 115 -5 128 12 8 11 11
-3 19 -9 6 -15 17 -12 24 3 8 1 17 -5 21 -6 3 -14 -2 -17 -12z"/>
<path d="M738 1496 c-39 -29 -44 -99 -10 -138 22 -25 77 -23 104 4 26 26 7 39
-21 14 -23 -21 -44 -20 -65 3 -26 29 -11 41 50 41 51 0 54 2 54 24 0 29 -42
66 -74 66 -11 0 -29 -6 -38 -14z m70 -18 c25 -25 13 -38 -33 -38 -49 0 -53 4
-28 32 19 21 44 23 61 6z"/>
<path d="M1066 1500 c-2 -3 -2 -38 -2 -79 1 -50 5 -76 14 -78 9 -4 12 12 12
55 0 42 5 65 16 76 33 34 52 13 56 -62 4 -79 22 -81 26 -2 2 48 7 62 23 71 34
17 49 -5 49 -72 0 -32 5 -61 10 -64 11 -7 11 -6 12 79 0 77 -16 96 -67 77 -26
-9 -40 -10 -49 -2 -12 10 -95 11 -100 1z"/>
<path d="M1330 1441 c0 -87 11 -101 81 -98 l50 2 -3 80 c-4 95 -21 103 -28 14
-6 -69 -25 -93 -57 -73 -14 8 -19 27 -21 78 -4 88 -22 85 -22 -3z"/>
<path d="M1505 1498 c-11 -28 -1 -151 13 -156 9 -3 12 13 12 56 0 60 15 92 44
92 25 0 36 -26 36 -88 0 -46 3 -63 13 -60 15 6 21 96 8 131 -12 30 -55 46 -81
29 -13 -8 -21 -7 -28 0 -8 8 -13 7 -17 -4z"/>
<path d="M1700 1492 c-13 -10 -23 -33 -27 -59 -5 -35 -2 -45 20 -67 68 -68
148 -1 121 100 -11 41 -77 56 -114 26z m80 -22 c25 -25 26 -61 1 -91 -16 -20
-23 -22 -47 -14 -25 9 -29 16 -32 51 -5 66 37 95 78 54z"/>
<path d="M1945 1485 c-73 -72 18 -190 96 -126 34 28 34 104 0 132 -32 26 -67
24 -96 -6z m79 -11 c19 -18 21 -85 4 -102 -16 -16 -53 -15 -66 1 -49 59 9 154
62 101z"/>
<path d="M2128 1499 c-25 -14 -39 -73 -26 -110 13 -37 40 -52 79 -44 29 7 34
1 23 -29 -7 -19 -64 -22 -82 -4 -6 6 -15 8 -19 5 -10 -10 18 -35 42 -37 78 -8
96 21 93 141 l-3 81 -45 4 c-25 2 -53 -1 -62 -7z m66 -25 c21 -20 21 -78 0
-98 -20 -20 -33 -20 -56 1 -34 31 -15 113 27 113 7 0 21 -7 29 -16z"/>
<path d="M2282 1428 c2 -45 7 -83 12 -83 14 0 11 158 -3 163 -9 3 -11 -18 -9
-80z"/>
<path d="M2365 1490 c-23 -25 -12 -39 13 -17 25 23 59 21 72 -3 12 -22 13 -22
-56 -40 -43 -11 -59 -30 -49 -61 8 -24 29 -30 89 -25 l49 4 -2 68 c-1 50 -7
72 -18 82 -26 19 -77 15 -98 -8z m95 -78 c0 -4 -7 -18 -16 -30 -11 -16 -24
-22 -42 -20 -35 4 -42 35 -10 47 29 12 68 14 68 3z"/>
<path d="M2823 1484 c-21 -21 -25 -32 -20 -66 9 -69 51 -94 112 -66 14 6 25
17 25 25 0 17 -15 17 -30 -2 -25 -30 -80 -12 -80 27 0 15 9 18 60 18 54 0 60
2 60 20 0 29 -44 70 -75 70 -15 0 -37 -11 -52 -26z m85 -6 c25 -25 13 -38 -33
-38 -33 0 -45 4 -45 15 0 29 56 45 78 23z"/>
<path d="M3097 1496 c-38 -29 -38 -115 0 -143 9 -7 28 -13 43 -13 27 0 70 25
70 41 0 14 -20 11 -36 -6 -21 -21 -47 -19 -68 4 -26 29 -11 41 50 41 51 0 54
1 54 25 0 53 -69 84 -113 51z m71 -18 c25 -25 13 -38 -33 -38 -49 0 -53 4 -28
32 19 21 44 23 61 6z"/>
<path d="M3250 1424 c0 -64 3 -85 13 -82 7 3 13 25 14 57 2 67 8 81 33 81 11
0 20 7 20 15 0 18 -31 20 -48 3 -9 -9 -12 -9 -12 0 0 7 -4 12 -10 12 -6 0 -10
-35 -10 -86z"/>
<path d="M3360 1425 c0 -50 4 -85 10 -85 6 0 10 35 10 85 0 50 -4 85 -10 85
-6 0 -10 -35 -10 -85z"/>
<path d="M3430 1423 c0 -49 4 -83 10 -83 6 0 10 26 10 59 0 59 15 91 43 91 27
-1 36 -19 39 -78 2 -35 7 -61 13 -60 15 4 11 126 -4 141 -6 6 -34 12 -62 12
l-49 0 0 -82z"/>
<path d="M3622 1494 c-12 -8 -22 -19 -22 -25 0 -15 27 -10 34 6 7 19 50 19 66
0 17 -20 6 -32 -38 -40 -52 -8 -64 -18 -64 -50 0 -36 16 -45 84 -42 l56 2 -5
70 c-6 76 -18 95 -63 95 -14 0 -36 -7 -48 -16z m85 -90 c6 -20 -28 -45 -56
-42 -34 4 -40 35 -9 48 29 11 60 9 65 -6z"/>
<path d="M3780 1423 c0 -49 4 -83 10 -83 6 0 10 23 10 51 0 60 13 89 40 89 11
0 20 7 20 14 0 11 -11 15 -40 13 l-40 -1 0 -83z"/>
<path d="M3890 1508 c-14 -85 -8 -174 10 -163 13 8 13 165 0 165 -5 0 -10 -1
-10 -2z"/>
<path d="M3972 1494 c-23 -16 -29 -34 -11 -34 6 0 17 7 25 15 19 19 48 19 64
0 17 -20 6 -32 -37 -40 -47 -8 -63 -21 -63 -49 0 -42 46 -60 90 -36 13 7 21 7
25 0 15 -25 25 -5 25 53 0 77 -17 107 -63 107 -18 0 -43 -7 -55 -16z m88 -88
c0 -24 -31 -47 -59 -44 -34 4 -40 35 -9 47 35 15 68 13 68 -3z"/>
</g>
</svg>
